<svg width="16" height="16" viewBox="0 0 16 16" fill="none" xmlns="http://www.w3.org/2000/svg">
<path d="M14.76 0.915068L6.94788 0.988158C6.72024 0.990288 6.53768 1.17619 6.53981 1.4037L6.5411 1.54093C6.54323 1.76844 6.72924 1.95089 6.95688 1.94876L13.5423 1.88534L1.18203 14.4718C1.02274 14.634 1.02518 14.894 1.18748 15.0532L1.28595 15.1498C1.36619 15.2285 1.47318 15.269 1.57797 15.2681C1.68275 15.2671 1.78717 15.2264 1.86771 15.1444L14.2279 2.5579L14.2881 8.97513C14.2863 8.98417 14.2864 8.99501 14.2883 9.00402L14.2878 9.13946C14.2899 9.36697 14.4759 9.54942 14.7036 9.54729L14.8409 9.546C15.0685 9.54387 15.2511 9.35798 15.249 9.13047L15.1758 1.3229C15.1737 1.09539 14.9877 0.912939 14.76 0.915068Z" stroke="#494C55" stroke-width="0.666444" stroke-miterlimit="10"/>
</svg>
