<svg width="1451" height="1865" viewBox="0 0 1451 1865" fill="none" xmlns="http://www.w3.org/2000/svg">
<path d="M430.143 112.147C366.967 -14.02 54.4202 -76.3236 105.997 174.886C114.454 216.076 115.304 287.001 105.997 373.332C97.4706 452.416 -69.442 495.689 -120.678 597.874C-201.032 758.13 99.4052 869.83 51.5948 954.074C-11.0249 1064.41 -202.763 1112.29 -308.819 1172.65C-408.659 1229.48 -472.255 1320.66 -496.673 1414.41C-539.511 1578.88 -461.77 1751.23 -247.617 1759.81C-140.413 1764.1 0.974945 1727.35 178.533 1628.02C257.919 1583.61 327.921 1547.01 390.135 1517.42C550.263 1441.25 507.212 1621.42 697.62 1628.02C806.113 1631.78 919.428 1476.24 1005.21 1559.21C1066.2 1618.2 1136.2 1689.78 1236.15 1763.37C1411.7 1892.61 1631.18 1911.64 1662.22 1727.19C1676.87 1640.12 1649.54 1507.71 1555.77 1320.15C1495.76 1200.12 1645.02 1204.35 1662.22 1050.53C1679.42 896.719 1538.79 825.785 1640.59 762.124L1642.63 760.849C1720.22 712.332 1802.98 660.586 1848.18 561.196C1887.11 475.583 1883.39 390.788 1848.18 325.632C1810.49 255.9 1736.74 208.662 1640.59 206.987C1544.12 205.305 1425.1 249.495 1297.36 362.858C1213.13 437.6 1156.1 263.686 1005.21 281.464C854.319 299.242 833.347 467.048 742.955 418.377C585.937 333.834 504.133 259.911 430.143 112.147Z" stroke="white" stroke-opacity="0.06" stroke-width="3"/>
<path d="M734.92 800.36C725.306 780.991 680.499 786.075 678.231 807.066C675.649 830.966 691.388 862.111 689.569 886.068C686.056 932.324 664.767 945.491 622.376 969.871C607.182 978.595 597.504 992.593 593.788 1006.99C587.268 1032.23 599.099 1058.69 631.69 1060.01C648.005 1060.67 669.522 1055.03 696.544 1039.78C708.626 1032.96 719.279 1027.34 728.747 1022.8C769.964 1001.44 808.324 1018.18 822.352 1029.21C831.635 1038.27 842.287 1049.26 857.499 1060.56C884.214 1080.4 924.67 1077.8 922.34 1055C919.048 1022.8 847.418 902.593 922.34 881.633C957.142 871.897 955.999 849.842 950.64 839.84C944.905 829.135 933.68 821.883 919.048 821.625C904.366 821.367 880.045 839.84 866.813 845.554C817.968 866.651 774.385 877.556 734.92 800.36Z" stroke="white" stroke-opacity="0.06" stroke-width="3"/>
<path d="M158.255 229.848C112.481 1.15946 398.097 58.1667 456.016 173.83C526.928 315.233 605.323 381.506 752.633 456.522C835.48 500.545 855.416 347.327 993.577 330.674C1131.74 314.021 1184.52 471.84 1261.82 403.85C1379.38 300.733 1488.69 261.183 1576.99 263.679C1664.72 265.654 1731.98 309.356 1765.96 373.519C1797.69 433.519 1800.31 511.384 1763.3 589.716C1715 682.826 1645.25 740.781 1574.42 788.168C1481.9 847.116 1608.99 912.226 1592.14 1052.26C1575.3 1192.29 1437.96 1188.06 1491.34 1296.37C1575.28 1466 1599.18 1585.48 1585.01 1663.88C1556.12 1831.19 1355.23 1813.25 1194.01 1695.41C1101.56 1628.19 1036.06 1563.17 978.693 1510.46C899.783 1435.39 795.711 1577.41 695.897 1574.6C521.421 1569.28 559.488 1405.84 412.81 1475.43C355.221 1502.64 290.667 1536.05 217.693 1576.43C53.1734 1666.68 -76.548 1697.73 -173.497 1691.54C-368.181 1683.09 -438.612 1525.64 -399.199 1375.43C-376.546 1289.56 -318.117 1206.09 -226.584 1153.99C-126.23 1096.87 50.1643 1052.13 107.46 947.564C151.044 869.836 -122.633 766.967 -49.829 619.92C-3.51804 525.708 148.053 485.096 155.928 412.066C164.5 332.573 164.796 267.456 158.255 229.848Z" stroke="white" stroke-opacity="0.06" stroke-width="3"/>
<path d="M212.857 287.124C172.952 81.7074 431.22 133.231 483.799 238.009C551.528 372.575 626.402 430.981 763.789 496.227C838.971 535.459 857.841 397.332 983.072 381.86C1108.3 366.387 1156.76 507.595 1227.02 446.58C1334.23 354.048 1433.67 319.266 1513.67 322.565C1592.85 324.834 1653.51 364.853 1683.73 423.236C1711.93 477.883 1713.45 548.561 1678.42 619.354C1627.49 705.005 1571.91 768.925 1508.53 814.646C1425.42 868.687 1538.78 927.758 1522.31 1053.55C1505.85 1179.35 1380.63 1175.12 1427.32 1271.36C1501.3 1422.5 1521.73 1528.65 1508.05 1598.13C1481.37 1747.77 1299.36 1730.98 1152.7 1624.91C1067.89 1564.3 1006.99 1506.05 953.321 1459.79C881.396 1392.86 786.72 1520.89 695.73 1519.04C537.441 1515.03 570.468 1368.83 437.453 1431.62C384.574 1456.37 325.563 1486.48 259.108 1522.69C107.866 1603.56 -9.99921 1628.81 -96.5517 1620.76C-271.481 1612.47 -334.497 1470.43 -298.568 1334.97C-277.714 1257.26 -224.536 1181.78 -141.443 1134.58C-46.9383 1080.9 113.855 1039.43 165.743 940.998C205.037 870.044 -41.4799 776.344 23.6681 642.992C64.9857 557.064 200.992 519.248 208.205 452.513C216.029 380.122 217.472 321.027 212.857 287.124Z" stroke="white" stroke-opacity="0.06" stroke-width="3"/>
<path d="M265.1 342.089C231.004 159.194 462.322 205.421 509.641 299.694C574.295 427.897 645.765 478.653 773.443 534.372C841.074 568.957 858.91 445.418 971.403 431.071C1083.9 416.723 1128.09 541.837 1191.43 487.573C1288.45 405.288 1378.19 375.145 1450.01 379.259C1520.75 381.827 1574.91 418.31 1601.43 471.124C1626.14 520.614 1626.55 584.362 1593.45 647.874C1539.8 726.373 1498.31 796.466 1442.28 840.683C1368.46 890.01 1468.27 943.257 1452.15 1055.27C1436.04 1167.29 1322.76 1163.05 1362.81 1247.57C1426.94 1380.78 1443.94 1474 1430.74 1534.81C1406.21 1667.31 1242.81 1651.61 1110.47 1556.94C1033.18 1502.7 976.775 1451.01 926.732 1411.04C861.68 1352 776.253 1466.51 693.948 1465.62C551.6 1462.88 579.638 1333.41 460.082 1389.61C411.829 1411.99 358.27 1438.91 298.232 1471.08C160.033 1542.89 53.8418 1562.44 -22.4469 1552.5C-177.891 1544.32 -233.59 1417.19 -201.088 1295.99C-182.001 1226.16 -133.992 1158.38 -59.2116 1115.92C29.5928 1065.48 175.033 1027.14 221.593 934.486C256.658 870.049 36.9222 785.18 94.5139 665.039C130.902 587.084 251.553 551.93 258.115 491.249C265.202 425.697 267.796 372.41 265.1 342.089Z" stroke="white" stroke-opacity="0.06" stroke-width="3"/>
<path d="M319.677 397.05C291.451 236.685 495.408 277.614 537.383 361.38C598.849 483.232 666.788 526.333 784.532 572.518C844.494 602.454 861.262 493.507 960.819 480.284C1060.38 467.062 1100.24 576.074 1156.54 528.565C1243.2 456.529 1323.06 431.029 1386.57 435.958C1448.77 438.828 1496.32 471.773 1519.08 519.018C1540.27 563.352 1539.58 620.169 1508.46 676.397C1452.18 747.746 1424.86 824.034 1376.28 866.752C1311.88 911.367 1397.96 958.788 1382.22 1057.02C1366.49 1155.25 1265.34 1151.01 1298.69 1223.8C1352.86 1339.07 1366.39 1419.35 1353.69 1471.48C1331.37 1586.85 1186.86 1572.24 1069.08 1488.97C999.437 1441.1 947.633 1395.98 901.3 1362.29C843.238 1311.14 767.212 1412.13 693.736 1412.2C567.583 1410.75 590.582 1298 484.696 1347.62C441.156 1367.62 393.143 1391.35 339.628 1419.49C214.717 1482.21 120.388 1496.06 54.4991 1484.22C-81.1834 1476.17 -129.466 1363.95 -100.45 1257C-83.1619 1195.05 -40.4071 1134.99 25.9276 1097.26C108.875 1050.06 238.704 1014.85 279.854 927.968C310.627 870.048 118.063 794.01 167.996 687.081C199.389 617.101 304.471 584.606 310.37 529.979C316.709 471.266 320.447 423.789 319.677 397.05Z" stroke="white" stroke-opacity="0.06" stroke-width="3"/>
<path d="M374.232 454.599C351.873 317.121 528.464 352.661 565.094 425.733C623.36 540.957 687.758 576.308 795.556 612.857C847.845 638.078 863.544 543.965 950.161 531.897C1036.78 519.829 1072.31 612.497 1121.56 571.849C1197.86 510.224 1267.85 489.422 1323.05 495.156C1376.69 498.32 1417.65 527.654 1436.65 569.224C1454.31 608.302 1452.51 658.061 1423.38 706.879C1364.5 770.918 1351.33 853.224 1310.2 894.346C1255.22 934.147 1327.57 975.637 1312.21 1059.87C1296.86 1144.1 1207.85 1139.85 1234.5 1200.76C1278.72 1297.83 1288.78 1364.99 1276.58 1408.34C1256.47 1506.31 1130.85 1492.82 1027.65 1421.13C965.652 1379.75 918.453 1341.28 875.836 1313.96C824.765 1270.82 758.143 1358.06 693.501 1359.08C583.547 1358.92 601.509 1263.15 509.298 1306.08C470.473 1323.66 428.009 1344.15 381.02 1368.19C269.406 1421.69 186.943 1429.8 131.452 1416.09C15.5324 1408.19 -25.3342 1311.12 0.195552 1218.67C15.6818 1164.74 53.1805 1112.52 111.068 1079.61C188.147 1035.76 302.359 1003.76 338.097 922.847C364.578 871.574 199.188 804.538 241.463 711.061C267.862 649.212 357.374 619.45 362.609 571C368.199 519.258 373.081 477.696 374.232 454.599Z" stroke="white" stroke-opacity="0.06" stroke-width="3"/>
<path d="M426.423 509.562C409.885 394.624 559.477 424.863 590.837 487.426C646.027 596.309 707.019 623.999 805.094 651.005C849.821 671.574 864.483 592.06 938.34 581.116C1012.2 570.172 1043.46 646.73 1085.78 612.84C1151.87 561.47 1212.13 545.314 1259.14 551.866C1304.34 555.332 1338.78 581.129 1354.07 617.129C1368.23 651.049 1365.33 693.874 1338.13 735.407C1276.51 792.296 1277.47 880.823 1243.7 920.45C1198.03 955.538 1256.8 991.201 1241.79 1061.64C1226.79 1132.08 1149.73 1127.83 1169.74 1177C1204.09 1256.11 1210.71 1310.33 1198.98 1345C1181.03 1425.82 1074.05 1413.42 985.202 1353.13C930.733 1318.13 888.039 1286.23 849.05 1265.2C804.865 1229.96 747.508 1303.67 691.565 1305.65C597.582 1306.77 610.543 1227.74 531.814 1264.09C497.624 1279.29 460.621 1296.59 420.059 1316.59C321.51 1361.01 250.741 1363.4 205.534 1347.8C109.136 1340.01 75.6006 1257.86 97.6968 1179.68C111.414 1133.63 143.735 1089.12 193.294 1060.95C264.667 1020.33 363.5 991.462 393.9 916.315C416.144 871.56 277.585 813.358 312.289 733.098C333.748 679.224 407.877 652.121 412.46 609.726C417.312 564.825 423.347 529.074 426.423 509.562Z" stroke="white" stroke-opacity="0.06" stroke-width="3"/>
<path d="M480.911 564.52C470.236 472.14 592.435 497.077 618.443 549.125C670.407 651.689 727.827 671.709 815.918 689.157C852.963 705.069 866.549 640.162 927.451 630.341C988.353 620.521 1015.27 680.954 1050.54 653.827C1106.25 612.722 1156.62 601.217 1195.32 608.593C1231.95 612.363 1259.78 634.622 1271.31 665.049C1281.95 693.811 1277.95 729.7 1252.75 763.942C1188.57 813.683 1203.64 908.479 1177.33 946.622C1141.08 976.998 1186.12 1006.83 1171.51 1063.47C1156.89 1120.11 1091.99 1115.84 1105.3 1153.27C1129.7 1214.41 1132.86 1255.67 1121.64 1281.64C1105.9 1345.3 1017.84 1333.99 943.579 1285.11C896.779 1256.5 858.705 1231.17 823.447 1216.44C786.265 1189.11 738.325 1249.28 691.23 1252.22C613.465 1254.63 621.394 1192.34 556.356 1222.12C526.891 1234.93 495.447 1249.04 461.421 1265C376.198 1300.33 317.311 1296.99 282.506 1279.47C205.883 1271.8 179.767 1204.58 198.37 1140.67C210.282 1102.51 237.339 1065.72 278.44 1042.28C343.914 1004.9 427.105 979.156 452.088 909.764C470.037 871.529 358.673 822.163 385.715 755.125C402.179 709.228 460.729 684.781 464.647 648.441C468.75 610.383 475.92 580.445 480.911 564.52Z" stroke="white" stroke-opacity="0.06" stroke-width="3"/>
<path d="M533.871 619.474C529.012 549.682 624.476 569.311 645.273 610.834C694.314 707.113 748.499 719.447 827.107 727.312C856.672 738.56 869.261 688.277 917.538 679.578C965.815 670.88 988.539 715.164 1016.95 694.81C1062.58 663.982 1103.34 657.14 1133.93 665.345C1162.2 669.422 1183.57 688.144 1191.41 712.996C1198.57 736.595 1193.45 765.544 1170.1 792.488C1102.96 835.083 1132.28 936.221 1113.28 972.896C1086.27 998.558 1117.81 1022.56 1103.5 1065.38C1089.19 1108.19 1036.09 1103.92 1042.76 1129.58C1057.33 1172.72 1057.04 1200.99 1046.26 1218.26C1032.64 1264.73 963.021 1254.5 902.943 1217.05C863.552 1194.82 829.882 1176.07 798.154 1167.66C767.77 1148.25 728.986 1194.87 690.479 1198.77C628.511 1202.48 631.44 1156.97 579.74 1180.15L578.326 1180.74C553.85 1191 528.254 1201.72 501.1 1213.41C428.729 1239.63 381.402 1230.54 356.818 1211.1C299.564 1203.55 280.731 1151.26 295.945 1101.64C306.117 1071.37 328.058 1042.32 360.925 1023.61C420.877 989.458 488.884 966.834 508.585 903.18C522.334 871.466 437.57 830.94 457.093 777.136C468.646 739.218 511.927 717.423 515.202 687.141C518.577 655.929 526.93 631.809 533.871 619.474Z" stroke="white" stroke-opacity="0.06" stroke-width="3"/>
<path d="M588.228 677.094C589.227 630.196 657.212 644.43 672.637 675.246C718.388 764.804 768.931 769.398 837.46 767.65C859.315 774.184 870.812 738.747 906.089 731.21C941.366 723.672 959.72 751.614 981.047 738.122C1016.26 717.707 1047.09 715.556 1069.33 724.553C1089.01 728.919 1103.76 744.019 1107.84 763.185C1111.46 781.518 1105.25 803.397 1083.93 822.925C1014.34 858.183 1057.7 965.198 1046.17 1000.24C1028.61 1021.07 1046.39 1039.13 1032.49 1067.94C1018.59 1096.75 977.703 1092.48 977.689 1106.27C982.298 1131.22 978.554 1146.38 968.293 1154.87C956.907 1183.94 906.267 1174.84 860.839 1148.98C829.158 1133.24 800.148 1121.16 772.19 1119.1C748.84 1107.7 719.51 1140.55 689.89 1145.4C644.199 1150.39 642.101 1121.86 604.14 1138.34C583.989 1146.35 563.516 1154.02 542.401 1161.83C483.436 1178.83 448.036 1164.03 433.871 1142.75C396.437 1135.35 385.036 1098.23 396.742 1063.13C405.098 1040.88 421.753 1019.68 446.131 1005.8C500.109 975.028 552.406 955.628 566.671 897.999C576.112 872.948 518.615 841.443 530.462 801.11C537.012 771.341 564.682 752.296 567.289 728.206C569.91 703.979 579.385 685.784 588.228 677.094Z" stroke="white" stroke-opacity="0.06" stroke-width="3"/>
<path d="M643.388 732.124C650.22 707.956 690.942 716.84 701.041 737.043C743.574 820.083 790.554 816.971 849.139 805.635C863.349 807.483 873.773 786.775 896.157 780.38C918.541 773.985 932.568 785.69 946.877 779.011C971.754 768.937 992.746 771.458 1006.71 781.263C1017.87 785.925 1026.04 797.446 1026.38 810.982C1026.5 824.102 1019.2 838.978 999.872 851.151C927.738 879.165 985.136 992.258 981.025 1025.74C972.84 1041.8 976.957 1053.98 963.451 1068.88C949.944 1083.78 921.153 1079.51 914.478 1081.48C909.186 1088.35 902 1090.48 892.246 1090.23C883.062 1102.02 851.25 1094.03 820.342 1079.67C796.297 1070.37 771.887 1064.9 747.647 1069.17C731.266 1065.72 711.31 1084.93 690.496 1090.74C660.948 1097.01 653.843 1085.34 629.508 1095.18C614.061 1100.79 599.122 1105.24 584.512 1108.98C538.814 1116.82 515.241 1096.31 511.425 1073.15C493.668 1065.88 489.65 1043.81 497.88 1023.1C504.438 1008.82 515.855 995.403 531.814 986.303C579.913 958.833 616.642 942.608 625.515 890.869C630.681 872.409 600.247 849.833 604.471 822.848C606.051 801.143 618.219 784.801 620.164 766.836C622.038 749.523 632.642 737.197 643.388 732.124Z" stroke="white" stroke-opacity="0.06" stroke-width="3"/>
</svg>
