<svg width="1451" height="1256" viewBox="0 0 1451 1256" fill="none" xmlns="http://www.w3.org/2000/svg">
<path d="M16.9793 321.134C-84.642 -4.20646 291.801 -37.3222 563.469 60.9137C721.974 111.435 826.067 -45.6827 1022.42 17.021C1218.78 79.7247 983.39 277.242 1283.84 378.613C1584.29 479.984 1437.61 933.54 1175.02 938.766C912.417 943.991 984.572 1020.28 721.974 1194.81C459.375 1369.33 16.9799 1126.88 126.987 870.837C236.995 614.796 126.986 673.32 16.9793 321.134Z" stroke="white" stroke-opacity="0.06" stroke-width="3"/>
<path d="M582.153 574.329C570.428 543.342 625.347 493.353 669.508 514.687C709.947 534.223 751.126 521.047 778.332 529.756C849.956 552.685 823.61 564.822 855.628 592.053C894.589 625.191 913.18 711.962 823.61 711.962C749.943 711.962 771.985 743.573 716.823 757.579C661.66 771.586 599.102 747.744 599.102 684.974C599.102 661.402 601.682 625.938 582.153 574.329Z" stroke="white" stroke-opacity="0.06" stroke-width="3"/>
<path d="M68.3516 342.571C-25.0974 43.9904 322.116 9.34067 573.101 100.585C720.873 148.29 819.247 4.25782 1000.23 62.053C1185.24 121.141 968.857 301.805 1244.9 396.436C1521.58 491.604 1389.93 911.816 1143.06 916.567C897.639 921.317 965.239 993.545 721.498 1153.48C477.758 1313.41 69.8929 1090.83 169.9 852.36C269.906 617.453 170.133 667.432 68.3516 342.571Z" stroke="white" stroke-opacity="0.06" stroke-width="3"/>
<path d="M119.724 364.009C34.4476 92.1876 352.432 56.0039 582.734 140.258C719.773 185.145 812.427 54.1988 978.03 107.085C1151.71 162.557 954.325 326.369 1205.97 414.26C1458.88 503.225 1342.25 890.093 1111.11 894.368C882.862 898.644 945.906 966.81 721.023 1112.15C496.14 1257.49 122.806 1054.78 212.812 833.883C302.818 620.11 213.28 661.545 119.724 364.009Z" stroke="white" stroke-opacity="0.06" stroke-width="3"/>
<path d="M171.097 385.448C93.9928 140.386 382.748 102.669 592.368 179.931C718.673 222.002 805.608 104.141 955.833 152.119C1118.17 203.975 939.793 350.934 1167.03 432.085C1396.17 514.847 1294.57 868.371 1079.16 872.171C868.085 875.972 926.573 940.076 720.548 1070.82C514.523 1201.57 175.72 1018.74 255.725 815.408C335.73 622.768 256.428 655.659 171.097 385.448Z" stroke="white" stroke-opacity="0.06" stroke-width="3"/>
<path d="M222.47 406.889C153.538 188.587 413.064 149.335 602.001 219.607C717.574 258.861 798.789 154.085 933.637 197.155C1084.64 245.395 925.261 375.501 1128.1 449.912C1333.46 526.471 1246.88 846.651 1047.2 849.976C853.309 853.301 907.241 913.344 720.074 1029.5C532.907 1145.65 228.634 982.695 298.638 796.935C368.643 625.429 299.576 649.775 222.47 406.889Z" stroke="white" stroke-opacity="0.06" stroke-width="3"/>
<path d="M273.844 429.416C213.085 237.873 443.381 197.087 611.636 260.368C716.475 296.805 791.97 205.115 911.441 243.276C1051.1 287.901 910.73 401.154 1089.17 468.825C1270.76 539.181 1199.2 826.017 1015.25 828.867C838.533 831.717 887.909 887.698 719.6 989.26C551.291 1090.82 281.548 947.738 341.552 779.548C401.556 629.175 342.724 644.977 273.844 429.416Z" stroke="white" stroke-opacity="0.06" stroke-width="3"/>
<path d="M325.219 453.228C272.632 288.444 473.698 246.125 621.271 302.414C715.376 336.034 785.153 257.431 889.246 290.683C1017.57 331.691 896.2 428.092 1050.23 489.023C1208.05 553.175 1151.52 806.667 983.303 809.043C823.758 811.418 868.579 863.337 719.127 950.307C569.675 1037.28 334.464 914.065 384.467 763.445C434.471 634.206 385.874 641.463 325.219 453.228Z" stroke="white" stroke-opacity="0.06" stroke-width="3"/>
<path d="M376.595 477.112C332.18 339.087 504.017 295.234 630.907 344.532C714.28 375.335 778.337 309.817 867.052 338.161C984.034 375.553 881.671 455.101 1011.3 509.292C1145.35 567.242 1103.84 787.39 951.353 789.29C808.984 791.19 849.249 839.048 718.655 911.425C588.061 983.802 387.381 880.464 427.383 747.414C467.386 639.308 429.024 638.022 376.595 477.112Z" stroke="white" stroke-opacity="0.06" stroke-width="3"/>
<path d="M427.973 501.098C391.73 389.833 534.338 344.446 640.546 386.753C713.185 414.739 771.522 362.307 844.861 385.742C950.503 419.518 867.144 482.213 972.371 529.665C1082.65 581.411 1056.17 768.215 919.406 769.64C794.212 771.065 829.921 814.861 718.185 872.646C606.449 930.43 440.299 846.966 470.301 731.487C500.303 644.514 472.177 634.683 427.973 501.098Z" stroke="white" stroke-opacity="0.06" stroke-width="3"/>
<path d="M479.355 525.236C451.285 440.73 564.663 393.809 650.188 429.125C712.094 454.294 764.712 414.947 822.673 433.474C916.975 463.635 852.621 509.477 933.445 550.188C1019.95 595.732 1008.49 749.191 887.462 750.141C779.444 751.091 810.598 790.826 717.719 834.017C624.841 877.209 493.222 813.62 513.223 715.71C533.224 649.871 515.334 631.496 479.355 525.236Z" stroke="white" stroke-opacity="0.06" stroke-width="3"/>
<path d="M530.744 549.604C510.846 491.858 594.995 443.402 659.838 471.727C711.01 494.08 757.909 467.819 800.493 481.437C883.455 507.981 838.106 536.971 894.526 570.942C957.259 610.283 960.826 730.398 855.526 730.873C764.684 731.348 791.281 767.021 717.261 795.62C643.241 824.219 546.152 780.503 556.153 700.164C566.153 655.458 558.498 628.539 530.744 549.604Z" stroke="white" stroke-opacity="0.06" stroke-width="3"/>
</svg>
